<svg width="900" height="600" viewBox="0 0 10368 6912" xmlns="http://www.w3.org/2000/svg"><path d="M 0,0 H 10368 V 6912 H 0 Z" fill="#006c35"/><path d="m 6500.9926,4752 c -17.0001,0 -63,46.99 -63,63.99 0,13 23.0073,39 42.0074,54 v 39.015 H 3240 c 115,115.0001 286,117.99 630,117.99 h 2610 v 39.015 c -20,16 -42.0074,41 -42.0074,54 0,17 45.9999,63.99 63,63.99 13.9999,0 39.0124,-24.99 55.0124,-45.99 h 144 a 60,40 0 0 0 110.9925,0 h 171 c 21,24 48.9925,24.9974 65.9925,24.9974 49,0 80.01,-21.0124 80.01,-136.0124 0,-108 -48.005,-117.99 -166.005,-117.99 h -439.9876 v -39.015 c 19.0001,-15 41.9852,-41 41.9852,-54 0,-17 -46.0001,-63.99 -63,-63.99 z m 21.0148,274.995 h 439.9876 c -8,30 -8,53.015 0,75.015 h -150.9975 a 60,40 0 0 0 -110.9925,0 h -144 c -8,-11 -22.9974,-28 -33.9976,-36 z" fill="#fff"/><path d="m 6891.7918,3375.1529 c 121.5808,-46.5652 242.7469,-93.8023 364.3574,-140.2714 -6.4214,17.1838 -14.8412,36.8352 -36.438,45.5111 -112.1088,42.7795 -223.9954,85.9158 -336.0672,128.6733 -7.3913,2.948 -14.722,6.1589 -22.7795,7.7179 7.3913,-11.767 14.3576,-23.6777 21.4753,-35.5179 1.5168,-3.307 5.7875,-4.6256 9.4528,-6.1108 z m -378.5986,-161.8921 c 26.1839,15.8602 49.9801,33.9875 66.6698,53.516 30.8955,37.6508 38.8619,86.4687 19.689,128.8183 -1.6666,3.4752 -5.18,6.0628 -8.1789,8.8446 5.9374,-23.4385 7.6931,-48.267 -1.6058,-71.297 -12.7513,-33.4561 -41.6183,-61.5462 -80.1454,-77.9877 0.6569,-14.6313 2.6227,-29.3919 3.574,-41.8914 z m -1003.0399,-20.3724 c 16.2957,-10.905 38.9226,-11.959 59.3085,-11.9348 20.477,1.1263 42.1345,1.8457 60.1876,10.4979 8.5418,7.8602 0.4229,17.1596 -8.3286,22.0961 -35.5003,20.2743 -74.6059,37.8666 -103.4144,64.4929 -7.8146,6.8782 -3.7563,17.591 6.1197,21.6172 14.9322,5.9202 32.2285,6.207 48.6449,5.8721 38.9833,-1.6775 76.4203,-13.3484 109.0428,-29.9807 9.0862,-4.5775 17.2347,-10.2815 26.6253,-14.5241 -20.1126,19.292 -42.7099,37.0032 -67.6378,52.3893 -21.0221,12.4858 -44.7088,23.3189 -71.0015,26.578 -20.6874,1.3907 -42.9506,0.5991 -60.8238,-8.6518 -19.9015,-9.3236 -29.2291,-30.197 -21.87,-47.4286 4.4529,-9.6823 12.6906,-17.8792 21.3539,-25.427 22.3543,-18.7411 49.6758,-33.0731 76.9386,-46.9019 -18.4759,-0.6953 -37.1955,-1.4852 -55.5522,0.2868 -11.9944,0.9582 -20.0519,8.0767 -28.5626,13.853 -2.5739,-11.2382 -2.6346,-24.5638 8.9669,-32.8325 z m -731.5955,-28.2071 c 16.206,-6.279 38.5605,-5.369 51.3421,5.5598 10.6925,10.0169 11.8441,23.7979 11.0568,36.3321 -8.5722,9.0347 -18.4456,17.3518 -25.627,27.2007 -15.0234,2.2046 -30.8044,0.264 -45.4959,3.7619 -7.3914,3.4031 -17.0526,5.4636 -20.5985,12.3179 -4.6353,8.8445 -2.4826,18.6692 -0.5147,27.8241 7.6324,31.9706 21.7486,63.3904 21.0221,96.3183 -0.8182,11.552 -1.7861,23.5352 -8.6937,33.9834 -1.6059,-18.3098 -9.7527,-35.6139 -15.6595,-53.2291 -11.148,-32.0908 -19.9912,-65.0195 -21.2954,-98.3781 -1.454,-12.8465 7.8753,-23.8939 17.2955,-33.5762 13.9036,-15.3861 38.8315,-19.8913 60.9733,-23.2229 -5.7551,-4.1946 -12.2677,-9.0346 -20.7784,-8.1008 -11.9048,1.3667 -19.9608,9.2511 -26.5038,16.5127 -1.1807,-16.0302 4.3638,-34.9635 23.4764,-43.3035 z m 1060.9531,-6.2069 c 1.0611,-0.862 2.4542,-1.1985 4.1796,-0.9821 -6.2998,5.7038 -9.7541,12.8928 -14.6005,19.3646 -13.7822,20.6108 -29.715,42.4926 -26.0499,66.7454 0.3925,11.384 8.4811,26.0982 25.2923,26.0021 8.2093,-3.2349 10.3296,-11.5278 14.4487,-17.4949 -0.5147,17.759 -3.8172,39.3277 -24.8976,49.489 -17.508,-2.2286 -30.6525,-14.5227 -31.3494,-28.3992 -3.5742,-41.9653 18.6285,-83.3514 52.9766,-114.7248 z M 2699.1608,2922.0505 c 10.026,-14.1399 19.4461,-29.5501 36.9852,-38.8971 -21.2931,34.0069 -43.4364,68.4706 -52.7358,106.0226 -3.0902,14.3562 -4.6353,30.9408 7.0875,43.2821 9.1166,7.74 23.7474,9.1549 36.2277,6.7582 18.9321,-3.307 27.7465,-18.9816 35.561,-31.4197 5.9982,9.2751 -0.2125,19.2926 -2.9686,28.5436 -7.8449,19.581 -17.2044,40.789 -38.8618,53.5159 -16.6297,10.0652 -40.4682,6.0388 -56.4618,-2.8279 -21.0828,-13.0374 -21.5663,-36.6922 -17.8709,-55.8404 8.3286,-38.7513 29.8646,-74.7253 53.0374,-109.14 z m 1543.5142,-151.704 c 6.1783,-9.2993 18.296,-20.3225 33.1676,-15.6742 17.8709,4.2666 39.1358,15.4822 36.2883,32.3052 -4.7851,5.7279 -10.9353,10.6403 -16.3564,15.9853 -5.7855,-8.676 -12.2677,-19.771 -25.8373,-21.6172 -17.6584,4.5775 -28.2309,18.5966 -33.8037,31.9464 -11.7227,29.1671 -14.3273,59.9628 -17.5991,90.2773 -4.2708,1.7976 -8.5419,3.5713 -12.9031,5.2007 0.1214,-27.896 -7.5436,-57.518 -31.1992,-79.1352 -5.3622,-7.1669 -17.2651,-3.5713 -25.3226,-7.0224 -15.0234,-4.2651 -20.477,-17.2317 -24.1117,-28.3274 -1.8164,-7.5016 -5.0584,-16.5127 1.2717,-23.1986 13.2986,-3.0203 23.717,6.2069 33.1979,12.0309 24.4139,18.3582 41.2858,41.9875 55.0991,66.0502 5.8138,-26.8662 11.9641,-54.4257 28.1094,-78.8242 z m 2539.7407,-73.6262 c 18.4782,-5.0326 37.9243,1.5813 53.0374,10.0168 25.2315,14.7625 44.9212,34.8225 60.1268,56.3678 8.1182,12.4858 17.3866,26.1708 14.1146,40.6949 -1.9379,9.7784 -2.9078,20.2741 -10.2991,28.6156 -8.179,8.0047 -23.5349,7.1891 -33.8341,2.4208 -11.753,-5.2728 -22.9595,-11.2872 -35.2575,-15.7447 -16.6297,35.757 -51.6747,63.917 -89.6619,86.2545 -25.7158,15.5782 -53.9163,28.3749 -82.4782,40.334 -17.6295,7.5259 -37.1371,11.552 -56.0367,16.4402 -18.8714,4.2426 -38.0746,9.8261 -58.0066,8.2687 12.5714,-0.575 22.5062,-7.0225 33.1069,-11.6238 55.2486,-25.427 109.3761,-52.7736 158.5357,-85.1969 26.1105,-17.8793 52.7966,-36.5001 70.3935,-60.3222 -11.3583,-1.9419 -22.7492,-3.6194 -34.2288,-4.8419 -9.238,-21.2584 -9.3291,-47.2606 10.6006,-64.8515 -9.9349,-6.0388 -11.0872,-16.9917 -12.7513,-26.0983 -1.4195,-7.9321 1.9421,-17.9973 12.6343,-20.731 m 49.5565,52.654 c 3.7565,15.7448 4.8764,31.8026 5.18,47.8114 15.5685,1.7738 31.0481,6.6622 46.9201,5.2489 8.0879,-0.934 7.7843,-9.347 3.3008,-13.3497 -14.7523,-16.08 -35.2271,-28.1829 -55.4005,-39.7106 m -52.7359,25.6917 c 7.9665,11.6722 26.0196,14.643 40.7719,18.3824 3.0294,-7.5257 6.9357,-15.4102 5.4513,-23.3908 -5.3318,-8.2453 -12.5713,-19.0293 -25.9588,-18.9816 -11.5707,4.6977 -16.1453,14.9547 -20.2644,23.99 z M 5757.3077,2674.5344 c 9.1773,-9.3954 24.7176,-13.9732 39.3766,-14.332 10.1778,-0.072 15.1145,8.5799 17.4474,15.1698 4.4226,15.5547 5.2103,32.4738 -4.3619,46.9737 4.9673,2.8519 9.9652,5.7519 15.0537,8.5798 -1.3325,9.9463 -2.2721,19.9639 -2.5151,29.9807 -10.117,-4.2892 -17.9012,-11.1193 -26.5645,-16.8714 -26.9593,36.7882 -66.3663,68.687 -115.4637,86.7107 -25.9588,10.3534 -55.6737,14.8828 -84.5741,12.0309 54.734,-15.4822 107.8949,-37.8188 147.6048,-72.0918 13.6607,-11.7428 25.4137,-24.7339 35.3486,-38.6324 -7.6932,-6.4954 -16.903,-12.0551 -22.8988,-19.6528 -4.7831,-12.1499 -8.2966,-26.672 1.5472,-37.8652 m 15.0233,11.9833 c 3.9691,8.8909 11.5708,16.2258 19.4765,23.1261 3.3311,-7.6938 7.6932,-16.0572 2.8168,-23.9659 -7.4806,-1.1488 -14.993,-0.5011 -22.2936,0.8396 z m -3069.9951,96.2976 c 109.8352,-54.57 220.1222,-108.6355 330.1648,-162.922 -3.151,18.9574 -11.3583,40.8857 -34.4399,50.3771 -101.8666,49.968 -203.9776,99.6499 -305.6887,149.7893 -2.6345,1.1024 -5.3926,2.0124 -8.27,2.7077 6.4842,-13.204 11.4212,-26.8882 18.2353,-39.9512 z M 5001.759,2494.5516 c 8.4508,-9.6823 17.9924,-18.9575 28.6841,-27.2007 -7.8753,14.1398 -3.1813,29.5735 0.4844,44.0258 4.1493,15.8173 9.7526,31.3472 16.0238,46.7332 4.3923,11.6004 21.2043,15.6743 34.6525,17.951 8.0575,2.0364 17.9316,-2.7077 14.8108,-9.9946 -7.422,-18.7895 -16.9029,-37.0275 -27.7465,-54.7145 3.8475,-11.8631 8.2093,-23.6071 11.9033,-35.4937 5.0889,0 10.2385,0.049 15.4189,0.096 4.453,21.976 17.6887,41.9156 29.8668,61.6645 0.03,21.3545 -1.5755,43.6186 -11.1479,63.8693 -6.391,14.3562 -27.7755,18.813 -45.0406,17.6628 -22.929,-3.4992 -38.1354,-19.1482 -51.5857,-32.905 -6.6947,18.0457 -25.6248,32.0425 -48.0399,37.6985 -18.9625,5.5117 -40.8303,-2.493 -51.0081,-15.7213 -11.1479,-14.6664 -13.2682,-32.3777 -12.7513,-49.1545 1.0004,-23.99 6.8771,-51.9585 34.077,-66.3625 1.9076,0 5.7248,0.021 7.6346,0.021 -1.211,0.4306 -3.6957,1.2705 -4.9066,1.7015 -16.5386,23.9417 -17.5695,54.0184 -2.8776,78.6789 4.2708,7.7885 15.0841,13.3975 26.0195,11.5763 13.6303,-2.6117 24.4139,-10.2816 33.7126,-18.1903 0.3318,-23.9914 0.2103,-48.0057 1.8164,-71.9466 z m -2167.0074,-50.1125 c 24.6568,-4.2187 47.1022,7.9805 64.6384,20.2278 23.4742,18.1419 43.0417,39.7591 55.4308,63.8929 3.7565,7.2853 5.421,15.2423 4.0278,23.0798 -1.7881,10.4018 -2.8167,21.8093 -11.1783,30.461 -9.8133,7.165 -25.2922,5.6078 -35.7114,0.096 -10.36,-5.4156 -21.1739,-10.2817 -32.441,-14.4039 -16.903,35.3976 -51.4332,63.3903 -89.0843,85.7291 -29.5631,17.687 -61.7916,32.5457 -95.1125,45.3205 -23.8688,7.1649 -48.2828,13.3255 -73.0611,18.2137 -9.8741,2.1325 -20.1429,1.9179 -30.26,1.7015 5.9374,-1.1023 12.2677,-1.4612 17.6887,-3.8821 54.22,-24.2285 107.1025,-50.5196 156.3881,-80.6696 33.289,-21.21 66.3358,-43.665 89.958,-72.1609 -11.4797,-2.0606 -23.0201,-4.0024 -34.7435,-4.8885 -9.238,-21.3061 -9.5113,-47.2363 9.9653,-65.1156 -9.3898,-6.4953 -10.7533,-17.1838 -12.4499,-26.3387 -1.7841,-8.8715 3.9407,-19.3915 15.9372,-21.2611 m 46.0411,53.0368 c 4.3618,15.8892 4.7851,32.2111 5.6032,48.3872 16.4171,1.4612 32.955,7.6219 49.4936,4.4093 7.6628,-3.4031 2.272,-11.1911 -1.7274,-15.1696 -15.113,-14.6907 -34.2569,-26.4106 -53.3691,-37.6267 m -40.3163,6.8302 c -5.3926,6.3272 -11.6619,13.6124 -10.8139,21.5929 9.5415,9.4902 25.6551,13.4445 40.2252,15.5306 1.4236,-4.5536 3.1206,-9.0112 4.2404,-13.5882 3.9974,-9.2995 -5.0888,-17.6388 -12.3587,-24.1104 -5.421,-5.2008 -16.5994,-5.3691 -21.2931,0.5751 z m 1828.9332,-78.202 c 16.0847,10.616 25.8677,25.8839 36.7416,39.8074 27.8362,38.7526 51.5547,79.2526 74.5171,119.9226 50.3726,87.3051 83.5076,180.513 101.748,275.2969 5.1497,29.3828 10.4207,58.9328 9.3595,88.6944 3.0598,59.0752 11.9337,119.4734 43.1024,173.8498 22.9313,36.9397 61.9339,69.7211 92.4761,93.6848 14.5538,7.9557 20.7155,6.0798 24.5517,2.8301 2.373,-2.0104 1.4373,-27.9223 6.2834,-40.0963 6.9052,-19.9874 22.7187,-37.0033 39.5284,-52.5096 18.8107,-16.2963 40.1038,-31.2511 65.2442,-41.1013 50.3423,-20.2037 102.5331,-37.3862 155.2401,-53.301 39.6802,-11.648 80.027,-21.9773 121.2846,-29.4774 -177.0724,0.9822 -354.1522,2.1325 -531.232,3.7379 8.8455,-34.0311 17.8406,-68.04 26.9593,-102.0206 18.7804,-19.5084 42.4055,-35.5421 65.7301,-51.479 101.5334,-66.29 218.7521,-115.3469 337.4669,-159.2794 -13.9036,-17.2316 -33.2283,-33.2895 -36.2884,-54.4511 -7.1787,-29.7181 8.4205,-59.0995 28.0488,-83.8353 11.6315,-14.0438 22.5061,-29.3828 40.4074,-39.0416 17.962,-9.8502 42.2663,-10.5034 61.9131,-3.4993 65.8256,23.3833 133.7263,64.5531 183.9227,101.5231 5.0282,4.0265 11.4798,7.5016 14.631,12.7505 -11.8138,30.2689 -24.2926,60.4182 -35.7419,90.8095 -52.3404,9.251 -104.9548,18.0942 -155.9659,31.3956 5.18,25.5715 14.4183,53.4675 0.5451,78.2504 -4.8459,-0.5274 -11.419,-1.1985 -12.2373,-5.8962 -1.9683,-21.4969 -15.0538,-41.0537 -28.5019,-59.3635 -65.0939,20.2763 -130.0383,41.2458 -191.4026,67.9198 -49.4648,21.7374 -99.6227,45.319 -136.2739,80.0959 272.2441,0.072 544.5253,0.072 816.7843,0 -17.4473,30.3415 -36.1062,60.2737 -53.886,90.4915 -178.2573,34.3677 -356.1814,71.1034 -529.1065,119.9503 -72.5745,21.0422 -145.0942,44.1938 -209.4579,78.5131 -6.6643,4.0265 -10.5118,11.4559 -5.664,17.4948 9.9956,12.1513 28.2308,17.1597 43.5275,24.0862 33.2586,14.5705 70.1224,22.5033 106.3471,31.0127 25.9588,6.0627 51.9176,12.1028 77.8423,18.2379 -2.1506,36.3555 -2.5131,72.8106 -5.3015,109.1193 -21.2347,0 -42.8921,-2.9722 -64.246,-4.4574 -41.8308,-3.9303 -84.3001,-6.5675 -124.6468,-16.7291 -54.9465,-13.7568 -104.4439,-39.8792 -143.2132,-73.4811 -42.558,-36.236 -73.332,-80.2133 -95.3865,-126.3025 -30.1082,-63.8693 -46.8897,-142.1031 -52.7055,-209.951 -2.665,-0.2868 -3.3074,13.2185 -5.8812,13.0029 -7.5413,29.9101 -16.412,56.4583 -29.0418,85.3144 -2.3935,6.8542 -8.7544,12.0794 -14.3576,17.3987 -40.5289,37.2438 -83.7521,72.6449 -128.9422,106.3131 -46.2536,34.1029 -94.4756,66.7455 -146.5753,95.171 -54.7947,29.7421 -114.0714,56.488 -179.62,67.7275 -35.2271,5.776 -75.2724,6.8783 -106.1398,-9.9933 -34.4695,-18.645 -51.2813,-51.0469 -60.3675,-82.1073 -31.4102,18.8613 -63.0655,37.458 -95.4161,55.3137 -29.1988,15.5064 -58.2777,31.8988 -91.7207,41.2459 -83.6039,24.5651 -170.5923,40.6706 -257.1363,57.2794 -62.065,11.1214 -124.1581,22.2642 -186.6481,31.7785 57.8851,-26.0022 116.6781,-50.832 174.3174,-77.1929 156.388,-70.7923 310.4432,-145.186 457.4999,-227.6318 20.052,-75.9972 52.4315,-152.4505 115.16,-213.4417 0.7877,-0.168 2.3936,-0.5274 3.1813,-0.6953 -4.9978,8.4118 -7.3913,17.6386 -12.5409,26.0021 -37.8028,52.3893 -64.6688,110.2943 -74.1838,170.2764 66.9409,-38.5142 132.2748,-78.8932 193.765,-122.805 37.9836,-26.938 73.6661,-55.8888 106.2583,-86.9457 8.9647,-8.7961 21.1435,-16.3441 24.5354,-27.896 1.4843,-7.5175 0.6457,-12.1547 -4.7522,-27.7384 -38.0123,-83.1303 -91.965,-186.8512 -127.7942,-259.9453 12.2677,-36.9314 23.6259,-74.055 36.0151,-110.9649 16.5082,8.6041 27.2607,22.1205 39.0137,34.3435 23.9903,27.8719 46.555,56.5359 66.8194,86.2268 11.3279,16.3206 13.4785,35.2774 17.6302,53.3011 -16.2646,-11.5762 -27.5946,-27.2733 -45.6477,-37.1712 0.7877,2.6356 1.8772,5.2008 3.3007,7.7165 28.5627,44.6008 48.1006,92.6549 60.7631,141.5917 7.8145,29.0703 11.2064,58.8845 9.0276,88.6045 -1.6361,32.2112 -7.1786,65.2117 -25.8676,94.2793 -16.5994,25.8121 -38.9227,48.9381 -62.2472,71.1311 -79.0567,73.4051 -171.7179,136.6773 -265.8233,197.5993 0.1215,3.5474 5.2104,4.5056 8.2397,6.4474 33.6823,16.633 75.8204,14.9548 113.4344,9.7784 28.3524,-5.2008 57.5512,-9.1549 83.5077,-20.1318 68.1236,-28.2085 127.5202,-67.5369 184.8633,-107.6056 75.1835,-54.1387 145.9977,-112.0153 213.5458,-172.0734 -22.5669,-63.3662 -46.0107,-126.5167 -69.8795,-189.5746 -12.9645,-32.9287 -25.019,-66.1463 -40.5289,-98.3781 -25.7158,-42.5149 -50.4334,-85.5357 -72.8478,-129.1778 9.0521,-33.3393 20.4407,-66.3162 30.1038,-99.5808 m 685.1908,171.4791 c -8.2396,2.5875 -15.1448,9.7784 -11.6922,16.9917 1.2718,5.4636 8.8151,7.3571 12.7816,11.4075 16.5083,15.1697 32.1367,30.9642 46.4966,47.477 35.8328,-10.3058 72.2123,-19.2444 108.3763,-28.7117 -26.9268,-20.3467 -56.8239,-39.7107 -92.7501,-48.914 -20.4467,-5.4875 -43.3172,-4.8162 -63.2173,1.7497 z m 792.7155,-43.8095 c 110.3463,-54.0668 220.0926,-108.8773 330.587,-162.7285 -3.1206,16.8009 -9.2076,35.2055 -26.6556,46.2784 -106.984,52.7964 -214.5753,104.8754 -321.5297,157.7657 4.5745,-14.0913 11.7833,-27.5359 17.5991,-41.3163 z m -556.73,-203.8063 c 10.2081,-4.6737 25.1708,-4.3373 32.076,4.1946 9.5112,11.3598 12.0551,26.2185 6.9073,39.2558 -9.7238,25.8598 -31.1991,47.8357 -54.6125,66.9618 -28.4715,22.0001 -62.5485,42.2764 -102.8367,47.2365 6.7554,-6.6141 16.6297,-10.2816 25.3226,-15.0274 24.9582,-13.3013 48.9789,-27.9686 69.9402,-45.104 10.9961,-10.0652 22.8987,-20.9461 24.8694,-34.7264 0.7573,-11.552 -12.4803,-21.4251 -25.9891,-23.3432 -19.6891,2.7558 -31.9567,16.2238 -46.4358,25.6918 -3.4526,-8.3635 5.7854,-14.2359 11.2368,-20.371 17.3547,-16.6806 34.8324,-34.582 59.5196,-44.7688 z m -1437.2412,-55.9828 c 33.743,-16.4643 66.8195,-33.8646 100.9854,-49.7779 -3.3616,16.9917 -10.3296,36.668 -31.1992,45.1282 -74.6355,36.1413 -148.449,73.3567 -223.3585,109.1193 8.3597,-13.5406 16.5993,-27.2249 25.807,-40.4059 42.2255,-21.7631 85.2406,-42.6608 127.7646,-64.0616 z m 3250.4001,-105.8569 c 49.1922,26.1951 89.7508,63.5826 111.7089,107.3706 21.6272,42.4444 21.4472,90.6159 4.0298,133.9678 -2.3632,5.0086 -7.422,8.772 -11.6619,12.7982 7.5739,-29.4298 10.1778,-60.3221 -0.3622,-89.51 -14.9018,-46.2542 -57.5207,-84.6717 -109.3464,-107.9166 2.5718,-18.8613 3.149,-37.843 5.6316,-56.7044 z m -1185.3703,19.006 c 8.45,-8.1728 16.6904,-16.4886 25.9588,-24.0862 -8.8151,16.2963 -2.0898,34.0068 2.0898,50.5196 4.7548,15.122 9.3291,30.3891 16.5386,44.9119 8.9973,9.3235 24.7783,14.0672 39.3158,13.7085 6.7555,-0.021 9.9653,-6.2791 7.6324,-10.7606 -7.1179,-18.2138 -16.3563,-35.9007 -26.8681,-53.037 2.029,-12.5825 7.936,-24.6853 12.0855,-36.9548 5.028,0.3587 10.1474,0.6954 15.2966,1.1024 3.3616,22.3125 18.1138,42.0835 29.6846,62.1192 -0.4835,16.1298 -1.9076,32.3536 -5.8462,48.2186 -2.9687,11.0488 -8.1485,23.8456 -22.2632,28.8306 -12.0248,3.6915 -26.1107,5.7519 -38.2569,1.2945 -17.8405,-6.255 -30.5029,-18.5731 -41.4686,-30.8923 -6.9358,17.4223 -24.5658,31.2269 -46.1929,37.3398 -17.7798,6.4714 -39.407,-0.311 -50.6764,-12.1512 -12.9334,-13.9732 -15.2055,-31.9706 -15.4188,-48.7702 0.7273,-16.1297 2.3328,-32.7379 11.1154,-47.5488 5.6943,-9.9463 14.5094,-19.7233 28.0486,-23.4385 -18.0531,23.6072 -20.0519,53.8761 -6.7251,79.2319 3.8475,7.1891 11.753,14.1399 22.2937,14.3796 16.0239,-0.6469 28.4737,-9.7783 39.0744,-18.43 -0.2429,-20.5867 0.9092,-41.1255 0.9396,-61.7129 0.7635,-4.6463 -1.0246,-10.2318 3.641,-13.8737 z M 3545.3632,2040.0398 c 40.2557,20.6351 72.3035,52.0307 87.6253,88.1485 12.4499,29.1905 11.5708,61.3056 0.4844,90.6643 -1.4844,4.7697 -6.0286,8.3393 -10.0868,11.8387 8.179,-27.7039 7.3003,-57.7343 -7.3609,-84.0219 -14.9323,-27.1529 -42.3152,-49.5374 -74.7541,-64.0131 1.7578,-14.1861 2.6367,-28.422 4.0906,-42.6096 z m 1299.1973,-30.8204 c 9.1166,-8.9385 17.2651,-19.2201 29.381,-25.7395 -7.9968,9.6104 -4.6352,21.4727 -2.7256,32.0667 4.4834,19.7716 11.1479,39.2317 19.0232,58.3336 2.4847,7.9806 12.8727,11.384 21.4449,14.4522 7.7539,2.3008 17.083,4.4334 24.9583,1.3667 4.9674,-3.4513 2.6345,-9.347 0.8788,-13.6124 -7.5739,-16.7291 -15.327,-33.5037 -25.9891,-49.1787 l 12.2374,-36.4758 c 5.3318,0.3352 10.6613,0.6234 16.0845,0.886 2.4544,22.457 18.0531,42.06 29.2899,62.216 -0.3924,17.1839 -1.9682,34.5101 -6.6643,51.3352 -2.6649,9.9228 -8.4507,20.3945 -20.2948,25.3808 -13.6,4.2667 -29.806,6.255 -43.1024,0.3352 -15.4189,-6.9984 -27.7466,-17.6628 -37.4081,-29.3109 -7.7539,17.855 -26.3817,31.9948 -49.0093,37.8189 -15.5684,4.6256 -34.077,-0.3111 -44.7087,-10.0652 -13.5393,-11.1193 -17.1741,-27.2249 -18.476,-42.0601 -1.0611,-19.0777 0.8789,-38.7526 10.2993,-56.5116 5.3926,-10.3057 15.0233,-19.3881 27.7776,-24.3972 -12.5107,19.6528 -18.9322,42.5149 -11.9337,64.2281 3.0901,11.3841 8.2397,25.9082 24.2614,29.4775 17.2954,1.7496 31.048,-8.6517 42.1951,-17.6629 2.0858,-24.254 0.7838,-48.6525 2.4807,-72.8797 z m 1339.4107,-30.7244 c 58.2481,-19.9396 116.4931,-40.0715 176.0801,-57.3272 -1.8186,10.7122 -6.7252,22.9361 -19.9016,28.0405 -84.5963,28.5679 -169.5333,56.656 -252.3448,88.3833 -16.4476,7.1892 -33.3498,14.5705 -46.1625,25.6435 9.1468,7.9805 22.838,10.9768 35.1967,14.5704 -0.1518,7.74 -0.1214,15.4821 -0.1214,23.2463 -17.508,-3.3551 -35.045,-8.4118 -48.6168,-18.0699 0.7877,-11.0012 0.5451,-22.072 2.4543,-33.0012 1.9684,-9.9229 14.7805,-14.5947 24.0489,-19.9874 41.0473,-20.2265 85.485,-35.6367 129.3717,-51.5017 z m -2621.2044,-96.4842 2.3937,1.8938 c -5.2712,5.297 -2.5739,12.2936 -1.7274,18.3824 2.8776,13.1092 6.9965,26.0982 12.6905,38.6324 1.8772,5.6077 9.238,8.2916 15.5077,10.1612 5.4818,0.9101 14.3576,3.0442 16.6297,-2.7557 -3.7564,-13.5883 -12.7816,-25.7153 -18.3567,-38.7527 2.6346,-7.5257 3.8779,-15.6024 8.3893,-22.5752 3.0294,0.048 6.1196,0.1445 9.2076,0.3111 3.0294,14.6187 12.6321,27.4889 19.5372,40.9817 -0.3925,13.8765 -0.9396,28.2789 -7.5435,41.3184 -4.1189,8.8204 -17.2348,11.1677 -27.7754,11.0488 -15.4189,-1.7257 -25.5352,-12.031 -34.6524,-20.9938 -5.8767,13.0851 -20.9007,23.3189 -38.4087,25.1168 -14.722,0.5993 -27.2,-8.7963 -31.0776,-19.5084 -5.1193,-14.1633 -4.5442,-29.3827 -0.3926,-43.6428 3.2421,-9.9706 9.572,-20.7553 22.5973,-24.5894 -10.2689,13.7327 -12.812,30.6283 -7.0572,45.9419 2.2417,6.327 6.391,14.2593 15.8418,15.1696 10.4792,0.1445 18.2656,-6.1829 25.7461,-11.0971 1.938,-15.6743 -0.3947,-31.4917 2.0595,-47.1404 3.7889,-6.7341 11.3628,-11.7185 16.3905,-17.9013 z m 482.7018,-27.0099 c 6.4214,1.3667 11.0569,5.5115 16.3565,8.4595 32.1085,20.9219 58.853,48.124 71.6065,79.7365 11.9337,28.6155 11.2064,60.0353 0.5755,88.8188 -1.454,4.9846 -5.4514,9.0112 -8.9669,13.1812 -0.2733,-0.5274 -0.8182,-1.6055 -1.1199,-2.1326 7.7539,-26.6014 6.6036,-55.2411 -6.9357,-80.5521 -14.6309,-27.728 -42.0434,-50.6875 -75.117,-65.1398 0.8485,-14.1377 2.2417,-28.2775 3.6046,-42.3704 z m 291.2993,-24.684 c 8.1486,-15.6985 29.5024,-28.8782 51.7657,-25.8597 11.1176,1.8937 18.9018,9.6339 22.8684,17.6628 7.7841,16.5361 8.9365,34.5585 6.2087,51.9586 13.6607,12.9413 28.5018,26.0506 34.2265,42.8273 10.6007,22.072 1.1198,45.6314 -7.9056,66.9375 -11.5405,28.185 -33.4712,53.7801 -37.56,83.7385 -1.4236,7.4056 2.1809,15.4822 11.753,18.0458 15.3878,-3.5954 17.7798,-18.07 20.9303,-28.6155 4.8155,-0.9101 12.3588,-1.3186 14.0236,3.4993 2.6345,13.3255 -4.7548,26.1465 -10.7229,38.2978 -5.3906,9.2275 -12.8727,20.1318 -26.7164,22.1923 -11.0568,1.6054 -19.5068,-6.0628 -23.9296,-13.0851 -12.6016,-20.2279 -8.6328,-44.2179 1.9076,-64.4202 16.4172,-32.1871 38.105,-64.5889 36.1062,-100.2996 0.059,-15.1697 -7.9967,-29.6462 -20.8695,-40.6949 -19.2336,41.1012 -50.3416,78.1536 -86.1737,111.3241 -18.5367,18.2138 -45.162,29.3351 -70.5757,40.4303 -22.7469,9.3234 -45.8285,18.5026 -70.0617,25.2362 46.646,-26.5537 91.3874,-55.5777 130.0974,-89.2957 31.9264,-28.3516 61.3074,-60.3221 73.1522,-97.7077 l -0.7878,-2.1084 c -17.265,-8.8204 -38.0139,-16.6088 -47.0104,-32.187 -3.8152,-8.8681 -3.3291,-18.8372 -0.725,-27.8718 m 17.2954,4.5054 c -4.453,2.2767 -1.3932,6.638 2.2417,8.125 10.8746,5.0086 22.0507,9.6581 33.3497,14.0673 -0.2733,-9.0111 1.7881,-20.2038 -8.1789,-26.6257 -8.6329,-5.7054 -20.4466,-0.7674 -27.4125,4.4334 z m 1844.0411,-20.0599 c 5.8159,-8.029 14.8108,-17.9269 28.1398,-16.5362 14.145,2.517 27.9879,8.5321 36.6809,17.9269 4.4225,5.8721 8.0878,14.8351 0.2428,20.0115 -4.1188,3.1868 -7.0571,8.5798 -12.1462,10.1855 -7.1179,-7.3571 -12.632,-20.4906 -27.02,-20.1076 -18.0227,5.2489 -27.9879,19.6991 -33.3809,33.4318 -11.176,28.3274 -13.4481,58.1891 -16.9614,87.5263 -3.5742,2.9241 -8.3893,4.5534 -12.6906,6.6379 0,-29.7422 -8.724,-61.5925 -35.6507,-83.5656 -12.9638,-1.2706 -28.3826,-2.4932 -35.6507,-12.4382 -8.8455,-12.6786 -15.2055,-28.3273 -9.0862,-42.6108 13.7215,-2.1327 24.839,6.0147 34.1681,12.7746 24.6569,17.9034 40.5874,41.6045 54.9776,65.164 6.0832,-26.7494 12.201,-54.118 28.3768,-78.3956 z m -3507.455,9.6581 c 7.5132,-10.4979 15.8113,-21.3062 28.8367,-28.0405 -20.7784,35.4701 -44.9517,70.7025 -52.6744,109.8381 -2.424,12.7983 -2.5151,27.4654 7.8449,38.226 9.6942,9.6581 27.3215,9.826 41.0429,6.4473 15.3581,-4.8643 22.5062,-17.9033 29.6846,-28.76 3.2118,0.072 3.878,3.0682 5.421,4.8643 -8.0878,25.1403 -15.9024,52.4135 -39.8623,71.4698 -22.2633,18.6209 -66.1841,9.0346 -77.1165,-14.0915 -7.936,-16.6329 -5.3015,-35.0387 -0.6362,-52.0063 11.4516,-38.2004 33.1394,-73.9374 57.4623,-107.9443 z m 2089.0986,-39.8552 c 39.9231,21.5931 72.6656,52.7502 87.9289,89.3719 7.5739,19.2201 10.36,39.7106 7.4221,59.747 -2.1809,14.5946 -5.1193,29.7422 -15.4492,42.2999 -1.4539,-3.8341 -0.4844,-7.7642 0.4228,-11.5762 6.8749,-28.9743 1.0287,-60.0352 -17.962,-85.5356 -15.6595,-21.2584 -38.8315,-39.0879 -66.0922,-50.8562 0.5162,-14.5228 2.3025,-28.9743 3.7261,-43.4486 z m 557.13,-19.5082 c 15.7506,6.4714 26.0499,18.2863 36.1973,29.3593 24.7478,28.6638 45.767,60.8521 64.6384,92.1296 1.8427,4.1294 1.9374,9.2551 3.2423,23.0065 -11.3886,-9.8027 -24.7175,-19.2686 -41.6486,-22.1446 -2.9991,5.2488 -2.9687,10.9043 -0.4229,16.2721 21.99,53.3715 46.8586,106.002 68.154,159.5629 13.5696,34.9185 25.4744,70.7924 25.9284,107.5571 0.9396,34.1272 -6.4213,68.2066 -19.1425,100.7489 -12.7817,30.5799 -32.3803,60.8972 -65.0643,81.0774 -26.8986,17.28 -62.7922,24.4449 -97.0158,21.9054 -41.7701,-2.469 -81.3303,-18.4066 -110.3166,-42.0842 -15.4796,-11.6722 -28.0487,-25.4513 -39.832,-39.4964 l 4.5137,-0.8396 c -1.2413,0.1203 -3.6956,0.3588 -4.937,0.4791 -26.1713,-34.8944 -45.587,-72.9767 -56.7935,-112.596 1.0004,-5.1288 -11.3582,-4.6978 -10.1171,0.4071 -15.9631,57.7827 -41.4383,114.7732 -83.6039,164.0002 -24.6264,28.279 -56.4898,53.516 -96.0234,68.4465 -43.0721,16.0814 -93.8091,17.1355 -139.1548,6.8303 -45.5566,-10.4018 -81.6636,-38.8729 -101.2296,-72.4236 -28.3524,-48.0762 -32.6841,-102.5045 -29.5632,-154.7729 6.0892,-42.228 19.4157,-83.5242 32.441,-124.6711 4.3922,-12.6544 8.3004,-26.2669 2.6346,-39.1121 -1.8165,-0.7435 -5.421,-2.2288 -7.2092,-2.9722 -6.0892,3.1388 -12.3588,6.2311 -17.1132,10.6403 -33.3801,29.143 -52.3404,66.3861 -67.486,103.3202 -11.4494,29.7421 -20.3859,60.1071 -26.3824,90.8578 -7.9664,48.6036 -20.1734,97.7836 -48.4346,141.8267 -15.327,23.4149 -38.3479,47.7396 -73.0299,53.1088 -32.1367,3.4031 -66.4877,-4.5775 -90.0248,-22.5047 -28.8367,-21.3304 -41.4665,-52.3416 -49.07,-82.1557 -12.1159,-53.5159 -8.3596,-108.3727 -0.7573,-162.1064 5.0888,-33.1208 12.3588,-66.0017 21.4145,-98.5715 2.9687,-0.2164 5.9678,-0.3831 9.0255,-0.5274 -11.9944,54.9065 -20.2644,110.6537 -18.1746,166.4679 1.8772,31.8026 6.6037,64.2038 22.9291,93.6364 11.0872,20.156 29.8957,38.9212 56.0366,47.5972 24.6873,7.9563 55.1576,9.394 78.2718,-2.469 23.8992,-12.4139 35.1057,-34.5821 43.9815,-55.121 17.4777,-45.4627 25.2012,-92.7447 38.9226,-138.9305 14.388,-46.8777 35.0753,-92.4822 60.4594,-136.3455 14.5397,-25.5716 30.5637,-50.7118 51.1295,-73.6264 18.2656,-20.3944 35.0449,-42.7795 60.9734,-57.7585 1.9379,0.072 5.7551,0.2406 7.6931,0.3111 4.7547,15.3619 -0.8485,31.2753 -1.6969,46.83 -1.6059,25.6918 -13.4179,49.8257 -20.2038,74.7252 -8.4204,28.4719 -15.6292,57.1835 -22.838,85.8675 -11.1479,41.0778 -19.0839,84.4089 -5.0585,125.7287 10.6007,32.402 38.8619,60.9933 77.0276,75.7553 24.8086,10.3292 52.6448,15.5781 80.575,16.3682 39.2551,3.1403 80.3009,-0.5993 115.4044,-15.5548 42.3152,-17.4465 72.273,-49.0825 91.691,-82.8745 18.9929,-33.7684 29.8364,-70.3431 32.9854,-107.177 0.4228,-73.1701 -5.9981,-147.7503 -37.6206,-217.1326 -4.0278,-9.5862 -9.2988,-19.5325 -6.9965,-29.8141 4.9977,-28.2084 16.9029,-55.3614 30.8651,-81.5059 0.8789,-2.9962 5.421,-3.2109 8.1485,-4.7458 14.9323,35.3014 29.4418,70.8408 38.4998,107.4396 11.419,47.573 17.9924,95.7654 24.7479,143.8451 5.3622,34.3193 6.9357,69.168 17.8101,102.8155 9.0255,27.9202 23.081,55.2412 45.1621,78.3679 26.8378,29.5017 67.1231,51.4071 111.9237,59.7706 38.3478,7.0468 79.3011,-2.0123 111.5607,-18.9575 16.9615,-9.1548 34.5614,-24.5893 28.927,-42.06 -53.7038,-111.7804 -97.8674,-226.2356 -141.7542,-340.5804 -2.9079,-9.4418 -8.45,-18.4784 -9.3594,-28.1842 5.6964,-30.242 19.084,-59.2405 34.1681,-87.2568 z m -1500.5607,93.9474 c 18.3568,-32.7862 36.6809,-65.5945 55.4309,-98.2398 36.2579,66.0017 65.7604,134.3065 87.8696,204.1174 2.6042,14.1156 -2.6649,28.303 -2.0291,42.4906 -12.6602,-17.7832 -27.2,-34.6787 -40.4682,-52.1743 3.4223,32.019 9.6328,63.8693 13.3875,95.8897 25.3833,189.1116 47.7073,378.4927 66.7587,568.088 21.8397,-12.5101 38.4998,-30.4611 47.8591,-50.425 12.2071,-22.4804 25.3834,-44.8393 43.2239,-64.9234 6.6947,-7.2134 15.5381,-16.4642 28.5042,-14.2358 7.3306,0.3345 10.8139,6.5674 11.5404,11.6238 3.2421,17.8073 -13.7822,33.1692 -10.8746,50.832 0.7877,14.4999 15.1145,26.938 32.1374,31.3237 29.4417,8.4118 61.4288,4.6496 91.6244,1.2705 13.6303,-2.3729 30.6526,-4.4093 37.2867,-15.6024 -7.0876,-17.9753 -14.9627,-35.757 -23.8993,-53.2049 12.7513,-25.7152 27.3215,-50.8803 40.62,-76.4533 3.4223,-6.0387 5.7248,-12.7021 11.3582,-17.783 9.6631,29.2389 12.0856,59.5798 15.9936,89.5376 4.0278,48.4349 -5.7855,98.7168 -36.3187,141.3291 -16.4475,21.8092 -41.0125,41.6287 -73.0611,47.9317 -27.9272,5.2969 -58.6123,2.876 -83.9372,-8.1492 -29.3202,-13.2054 -49.4328,-36.404 -59.8839,-61.4005 -15.8721,28.8547 -36.7416,56.1287 -63.3061,79.5913 3.0901,37.4339 6.5428,74.8429 8.9061,112.3058 1.7558,41.7731 -11.7833,82.7086 -27.4428,122.2519 -7.6021,16.9918 -15.0841,34.0788 -24.4747,50.5196 -83.478,107.9443 -193.8242,203.5645 -326.2249,274.9583 -86.6625,47.0926 -182.5304,83.614 -283.1825,107.6055 -52.6137,12.0793 -106.4064,21.9296 -161.1425,25.0925 -56.4921,0.6235 -113.827,-5.1528 -166.6302,-21.5453 -49.5544,-15.29 -92.839,-43.1383 -120.6181,-79.1352 -97.5935,7.9806 -195.7646,12.3663 -293.9061,12.5584 87.5364,-24.8278 174.1989,-51.6462 259.4025,-81.1741 -48.0467,-194.9175 66.3256,-408.2492 150.9063,-521.9574 -58.7509,96.1337 -96.7408,193.7079 -105.3799,292.791 -4.8155,67.0558 1.2717,137.4652 40.7695,198.1523 105.0141,-38.8487 207.2436,-82.5151 305.2666,-131.5002 83.1152,-42.1319 163.4161,-88.1 236.3853,-140.7968 34.5917,-25.3089 68.2125,-51.7181 96.6234,-81.5337 8.3892,-7.8126 4.301,-18.9574 1.5754,-27.8483 -6.3302,-14.9312 -13.5088,-29.6219 -20.8087,-44.2407 -49.6758,15.9134 -102.5924,26.8178 -156.4769,26.6256 -29.381,0.6712 -59.6107,-3.762 -84.937,-16.0095 -21.7182,-10.5926 -37.8317,-27.9921 -44.374,-47.5011 -9.0558,-25.5958 -5.1193,-52.6056 0.3037,-78.4164 8.6025,-37.3619 25.9891,-74.7252 59.0352,-103.0021 23.2023,-19.7475 53.9163,-34.9428 87.9659,-38.9213 38.4998,0.1445 74.7541,15.0031 102.2295,35.6367 34.9842,26.2427 58.8531,60.2738 77.2128,95.1917 34.2569,-15.7932 67.1838,-34.486 92.6908,-58.7642 25.0189,-20.5866 50.7674,-41.6045 82.7226,-55.4333 7.9665,-3.6194 21.7183,-7.6219 27.0178,0.838 5.7855,12.5583 0.2733,26.363 -3.6045,38.8486 -10.2992,18.2139 2.1506,38.9215 17.5384,52.8442 21.4146,19.1241 56.6113,20.9695 86.4477,16.6806 -31.2605,-254.16 -63.035,-508.2924 -94.3201,-762.4593 -0.6361,-8.5273 -5.2995,-16.3158 -9.2987,-24.1056 M 3410.6134,2639.43 c -15.327,5.2248 -34.5006,12.9655 -36.7727,27.5615 3.6046,11.0972 20.0823,14.5241 32.4715,16.8956 39.832,6.1108 81.2341,5.9922 121.0402,-0.1922 -0.7273,-1.1264 -2.2418,-3.355 -2.9992,-4.4814 -20.748,-18.5966 -47.1926,-34.6061 -78.6346,-39.3042 -11.5404,-1.3666 -23.8081,-3.9783 -35.1057,-0.4789 m 260.8319,103.8177 c 4.1188,51.79 -5.0585,104.1565 -25.6855,153.3559 -7.9665,17.0878 -14.6006,35.1812 -29.624,49.4171 -73.8786,78.126 -169.0518,141.9511 -269.341,197.9795 -89.3583,49.2506 -183.708,92.9384 -282.3308,129.4405 16.8422,6.4954 34.5302,11.7186 52.918,14.811 49.2522,8.6517 100.1114,4.0024 149.4488,-1.6294 154.4773,-18.3098 299.9344,-71.6564 425.2107,-144.5638 83.0559,-48.3389 158.7208,-104.6335 224.7508,-167.3043 22.0811,-22.1446 49.253,-43.7853 54.6429,-72.9282 -5.2711,-49.4413 -12.2373,-98.7652 -18.0531,-148.1788 -34.348,10.905 -76.8721,13.4679 -108.043,-4.7458 -37.8332,-22.5993 -52.2212,-61.1612 -58.1873,-96.7745 -32.6254,34.6802 -71.003,66.1233 -115.708,91.1205 z M 5562.5866,1788.636 c 8.5722,-11.2638 16.7512,-23.7019 31.3799,-30.7963 -21.265,33.6966 -42.9529,67.9674 -52.5234,105.1655 -3.726,16.0815 -4.9977,35.6603 11.6923,47.7155 9.6919,3.7379 20.8695,5.9683 31.4405,3.0202 19.3247,-3.4272 28.3523,-19.3404 35.8936,-32.2333 2.0899,5.1767 3.4831,10.5442 1.2414,15.865 -6.877,22.3845 -16.0239,45.8237 -36.712,62.767 -23.2942,19.7475 -70.2742,8.3877 -79.1456,-16.9191 -7.7843,-22.9595 -0.6665,-47.0222 7.8753,-69.2165 12.4217,-29.7194 29.6261,-58.0709 48.8597,-85.3698 z m -2454.426,63.1021 c 20.6569,-31.6825 40.4985,-63.6772 60.6415,-95.551 32.7143,67.6073 58.6124,137.2994 76.5759,208.2853 1.1806,12.917 -3.2705,25.7878 -4.7244,38.6323 -14.7805,-15.8173 -23.6563,-34.8709 -38.7101,-50.6641 8.2093,53.3253 11.1479,107.0802 16.5083,160.6204 5.9677,69.2372 11.6011,138.5021 17.2043,207.7599 44.8606,-5.9442 85.1741,-26.9137 112.257,-55.5293 40.7392,-42.8514 58.8226,-96.7745 63.9423,-149.5474 -0.334,-67.7995 -4.9066,-136.774 -31.8353,-201.6705 -4.7547,-13.2779 -13.5088,-26.1224 -13.3289,-40.1917 3.2117,-26.1466 14.2665,-51.2149 25.9588,-75.6378 2.9686,-5.7038 4.9066,-12.9654 13.6303,-14.6664 13.2986,32.5221 27.0482,65.0195 35.8936,98.5232 13.7215,52.4853 20.3556,105.9259 27.988,159.1343 5.0888,32.2111 6.6035,64.9476 16.903,96.5117 13.3571,42.4445 40.4378,83.8077 85.0258,110.792 33.5305,20.1319 76.3611,33.913 119.011,28.5673 30.0779,-4.2892 60.5201,-13.757 81.5748,-31.9223 9.5112,-8.0525 16.0543,-19.8436 11.9944,-30.8682 -43.0721,-87.7405 -78.2422,-177.7343 -113.7973,-267.507 -12.1463,-31.2269 -24.0814,-62.5264 -35.9848,-93.8024 -3.3918,-7.9328 1.0307,-16.1056 2.665,-23.9416 7.4828,-23.9182 17.174,-47.6215 30.5637,-69.8593 14.5702,5.5356 24.0206,16.4885 33.5305,26.3871 28.684,32.6902 51.5531,68.3028 72.5744,104.3708 -1.0003,4.6015 -1.9683,9.2274 -2.7561,13.8765 -10.6613,-10.4737 -24.3531,-19.8678 -41.4968,-22.5276 -2.7256,5.1287 -2.6042,10.7364 -0.2429,15.9377 19.0839,45.6549 39.4373,90.9753 58.853,136.5321 16.5083,40.6224 36.3499,99.6776 35.2271,124.9131 -3.4702,35.4412 -9.7541,82.4322 -23.2986,115.4645 -14.9018,29.3593 -40.8562,64.4223 -76.2055,80.5521 -30.3208,14.428 -67.7592,16.6564 -101.9258,11.3356 -44.9821,-7.1173 -83.5669,-30.1252 -111.1979,-58.4538 -38.8315,-39.927 -62.67,-87.9065 -76.7832,-136.698 -2.1203,0.048 -6.3607,0.1921 -8.4812,0.2639 -13.2075,49.0827 -33.289,97.4243 -64.3066,141.3499 -27.8058,39.2799 -66.2448,76.4049 -119.2554,95.1433 9.2683,121.5331 18.9625,243.0386 25.5944,364.6893 0.9699,59.9869 -2.0899,119.9502 -5.8463,179.8632 -0.059,8.1493 -4.3618,15.6972 -7.5717,23.3189 -10.3903,26.0022 -21.3842,51.8619 -33.0764,77.5523 -1.8468,4.2892 -4.2404,8.4838 -7.6628,12.1755 -1.5147,-114.5313 -13.7822,-228.7793 -23.5652,-342.9996 -8.8759,-100.5829 -17.7495,-201.1729 -26.3824,-301.7559 -42.4366,-0.7434 -86.1441,-10.5684 -117.4632,-34.1514 -36.4987,-26.5778 -55.1294,-64.8992 -64.0334,-102.7187 -7.8753,-33.5037 -9.5416,-67.8479 -6.2391,-101.758 7.2699,-44.2884 21.5968,-87.5954 35.2575,-130.8781 1.8772,-7.74 3.242,-15.8651 1.0307,-23.6556 -0.8484,-2.8279 -1.6666,-6.1829 -5.8158,-6.9742 -6.3606,-0.6469 -11.0872,3.1164 -15.3878,6.159 -23.8081,18.2144 -39.3765,41.7731 -52.9765,65.3547 -25.7766,48.7231 -40.9518,100.659 -49.2219,152.9757 -6.8465,34.488 -16.8422,68.8294 -33.1979,101.3503 -12.9942,24.1579 -29.1988,49.0342 -57.3689,64.1804 -24.051,13.1092 -55.8559,11.5043 -82.1746,3.9782 -33.3194,-9.7783 -57.0364,-33.4076 -69.6366,-59.0046 -21.9004,-44.0017 -23.3246,-92.1712 -21.99,-138.8339 3.1205,-54.6902 12.9334,-109.0917 28.0487,-162.4866 2.8471,-0.479 5.7247,-0.9341 8.5722,-1.3667 -12.2374,61.2573 -22.2026,123.3787 -16.4172,185.4758 2.8169,26.9139 8.8759,54.091 23.4156,78.7274 12.3588,21.0421 34.0467,39.9511 62.7611,46.8299 24.4139,5.9443 53.3409,5.4637 74.1171,-7.5257 22.5973,-14.3078 33.289,-36.668 41.5576,-57.9009 19.4461,-53.8042 26.7467,-109.8588 46.889,-163.5164 19.5372,-52.6057 46.1018,-103.6312 78.9679,-151.8975 19.0536,-25.02 39.6498,-49.489 63.5794,-71.7808 7.0876,-5.8481 14.2058,-14.1633 25.4744,-14.2595 6.1784,3.1388 3.9691,10.0169 4.119,14.9313 -3.1509,24.2064 -3.4526,48.9623 -12.6017,72.3752 -16.7208,48.0521 -27.9879,97.1616 -40.2556,146.0016 -8.5115,38.0338 -10.7829,78.6582 7.602,115.1326 13.5393,27.8242 41.7095,50.4008 75.6946,62.9591 18.4759,6.9023 38.439,11.1214 58.6427,13.4204 -11.1479,-135.6959 -23.8081,-271.3156 -35.3486,-407.0114 -2.6366,-21.1127 -0.8788,-42.8978 -11.2693,-62.8851 z m 4499.6083,0.5273 c 18.2049,-34.1754 35.0449,-68.7575 53.4624,-102.8639 28.2309,73.5988 55.7937,147.4186 78.8124,222.1369 3.4526,12.8687 7.9664,25.6435 9.6631,38.7527 -2.3936,10.3776 -6.3909,20.5631 -6.7251,31.2269 -10.0563,-15.3384 -20.1734,-30.6284 -30.3815,-45.8713 12.8424,191.1782 28.3501,382.2596 45.6759,573.2443 5.3622,61.4238 13.2075,122.7288 16.0543,184.273 5.2104,114.0061 0.1822,230.4796 -43.5867,340.0759 -16.4476,39.6146 -37.3778,78.2226 -63.9727,114.2686 -35.7418,46.5895 -88.8102,83.3308 -147.1827,111.5592 -103.955,49.4891 -222.9364,75.2299 -341.7326,91.1206 -6.7252,1.9418 -9.4505,-4.2427 -13.2682,-7.0468 105.9842,-40.3825 207.8804,-87.8373 302.993,-142.67 47.5555,-28.1842 94.1127,-57.8767 134.1262,-92.7725 45.8588,-40.8615 80.4491,-90.0629 96.1715,-143.4579 17.2348,-53.6838 11.2976,-109.5478 7.5125,-164.1938 -9.9349,-125.9638 -22.233,-251.81 -32.7143,-377.7529 -16.1432,-194.0744 -32.4108,-388.1763 -48.5865,-582.2506 -3.4223,-13.6367 -14.1754,-25.3324 -19.1425,-38.6089 -1.3344,-3.2572 1.7557,-6.1812 2.8149,-9.1778 z m -268.4598,33.3137 c 61.9435,-51.4554 122.0103,-104.3224 181.5307,-157.5791 2.6366,47.8599 -28.4738,91.8601 -63.2151,129.2469 -18.5974,21.7375 -44.8302,38.0096 -68.425,56.081 -11.2975,8.1009 -22.2633,16.4402 -33.1069,24.8762 3.1206,12.7982 7.8754,25.4029 9.6328,38.3939 -0.9093,12.0552 -3.3616,24.0384 -5.18,36.0452 -13.3571,-16.5845 -22.8987,-35.0872 -38.1657,-50.6157 6.7251,54.2832 9.9955,108.8083 14.5701,163.2331 11.9337,159.8048 22.8683,319.6371 33.1675,479.511 -0.605,4.1225 3.9691,6.7341 6.9054,9.6581 44.0726,38.7768 87.966,77.6975 129.2162,118.3883 32.4107,34.1271 63.0936,69.4031 89.1138,106.8659 34.0771,49.0343 61.0645,102.1451 69.0308,158.1252 4.3316,35.2053 2.181,71.5389 -12.298,105.2554 -25.5166,-92.3854 -72.4671,-176.3866 -127.1944,-234.6475 -46.041,-49.6335 -96.4011,-98.2606 -147.2344,-144.8542 3.5437,56.9906 7.0875,114.0061 9.8437,171.0229 2.6954,73.5503 -0.7272,147.1282 -4.6656,220.6093 0.03,13.9249 -7.9057,26.6499 -11.9944,39.9512 -11.8441,29.8625 -21.3842,60.4424 -36.5594,89.3925 -2.4239,-67.8714 -5.3319,-135.8133 -10.5118,-203.6128 -9.2987,-121.4364 -19.0817,-242.8244 -27.8665,-364.2608 -1.3021,-9.562 -0.6361,-19.3162 -2.9383,-28.7117 -33.4416,-30.9406 -69.547,-60.0352 -104.4735,-89.897 -61.5198,-50.8562 -123.6766,-101.2327 -188.1958,-149.6926 12.2373,126.8554 24.8975,253.6763 36.3468,380.58 4.9066,57.6141 11.3886,115.2295 12.0856,173.0136 0.8788,50.2569 0.2428,100.5345 -1.1806,150.7708 0.1822,31.7065 0.7272,64.4686 -13.4785,94.6179 -21.0221,37.3399 -58.7338,68.519 -104.1995,87.7613 -35.5004,14.907 -75.6353,22.8399 -115.7968,23.104 -27.109,0.4789 -54.0683,-5.2249 -78.0275,-15.0273 -41.9523,-18.7169 -71.8783,-50.6399 -91.143,-85.0104 -13.2052,-23.6548 -22.6861,-48.6512 -27.8057,-74.2208 -2.9687,-11.1918 -6.1176,-24.1337 -18.75,-31.1308 -10.0563,-5.369 -22.0811,-1.0782 -31.8049,2.5171 -23.6563,9.9706 -46.4336,22.0001 -63.549,38.5606 -55.7346,53.0604 -82.2413,120.7866 -98.8377,187.4388 -8.1182,28.758 -20.991,57.35 -43.5882,81.0981 -16.3868,16.9191 -39.7847,33.1215 -67.486,33.5521 -21.6946,0.3373 -42.6189,-6.9742 -61.9739,-14.5463 -42.8313,-17.8791 -72.5419,-50.6585 -90.2321,-85.6531 -4.7276,-9.3512 -10.4992,-17.1292 -19.7749,-50.2631 -10.0015,-35.7246 -13.4556,-89.987 -9.5779,-145.2067 1.8772,-5.3449 -5.1193,-7.2852 -8.9648,-10.2573 -15.2662,-10.3534 -21.5056,-26.7936 -21.2953,-42.2764 -0.4236,-56.8226 9.9956,-114.6282 40.2253,-166.6131 24.505,-42.8756 61.2162,-80.3101 96.9566,-117.6002 3.3615,-4.0263 9.2987,-7.2376 10.9354,-11.9349 -22.2633,-20.1076 -45.7693,-39.3761 -69.5167,-58.3813 -13.5393,-12.3896 -30.0171,-22.457 -43.3454,-34.9669 -50.0986,-42.9718 -99.3486,-86.5378 -148.5748,-130.1386 4.696,63.7733 8.27,127.595 12.298,191.4132 3.0598,59.0994 8.2375,118.174 7.1787,177.3473 0.2126,52.7481 -2.7864,105.449 -5.5121,158.1251 -0.1518,13.1334 -6.8445,25.3566 -11.085,37.8665 -11.9351,30.8441 -22.7187,62.0475 -37.1978,92.2472 -2.6953,-24.9723 -1.0591,-50.1125 -3.0597,-75.1055 -5.4818,-124.6919 -17.8102,-249.1004 -26.5646,-373.6541 -7.4517,-95.2884 -14.0251,-190.6529 -21.9597,-285.8929 -32.8032,-32.2112 -67.4267,-63.3904 -99.867,-95.9105 -37.9835,-37.9149 -75.9389,-76.0938 -107.7394,-117.4828 -45.6478,-64.9953 -96.8973,-128.0994 -160.1724,-183.3192 -3.6045,-2.6838 -2.4847,-6.6861 -2.4542,-10.1129 2.1809,-35.7328 3.9082,-71.4698 6.1479,-107.1978 45.0427,23.1987 87.9956,48.914 129.2828,76.163 31.9871,21.8335 62.4293,45.2485 88.3288,71.7325 13.3593,12.5099 25.6855,28.4717 21.2043,45.5588 -15.2056,-4.7698 -30.9258,-8.5798 -45.3138,-14.7625 -5.7855,-2.5172 -12.0855,-4.1226 -18.5678,-4.8885 -0.9396,9.9934 7.6628,17.8793 14.1147,25.7396 46.9201,54.3792 95.8679,107.6055 146.0866,160.095 6.4517,6.7342 13.5696,13.1577 18.5366,20.7311 -3.1812,-61.5442 -9.1165,-123.0193 -13.3289,-184.5358 -7.118,-94.9981 -14.4183,-189.9755 -21.536,-284.9805 -1.3021,-14.1876 -0.4229,-28.8305 -7.6324,-42.1803 -3.483,-5.321 1.6666,-10.1855 4.5138,-14.7868 17.2348,-26.363 33.8948,-52.9885 50.2512,-79.7365 0.7877,-1.8698 4.5745,-6.686 5.7247,-2.0604 30.9866,63.7249 55.0991,129.5372 72.9085,196.3276 5.4817,15.9853 -1.2717,32.2816 -3.3008,48.267 -11.5709,-18.0942 -24.6872,-35.5179 -37.5296,-53.0605 16.4475,166.8273 25.9891,334.0624 38.3175,501.0763 8.3286,11.073 21.1132,19.8436 31.291,29.9587 98.2896,89.6828 200.3414,176.6975 302.3264,263.7192 75.7834,-66.5768 152.3297,-132.6269 229.1425,-198.4634 3.3312,-2.445 5.6033,-5.4395 4.4226,-9.1548 -23.1112,-207.6633 -46.2535,-415.3542 -69.3951,-623.0174 -2.9382,-20.9937 -2.1506,-42.6109 -12.1159,-62.5505 18.9321,-32.187 39.6802,-63.725 58.4909,-95.9866 10.2992,16.9433 17.3866,35.0388 25.5048,52.7259 19.0817,44.0735 35.5915,88.8672 48.6449,134.2788 2.7258,10.2332 7.2091,20.5632 5.4211,31.1551 -1.3629,9.5619 -3.0295,19.1018 -4.3316,28.6874 -12.6602,-16.9191 -24.8065,-34.0795 -37.56,-50.9523 18.1013,167.2558 36.478,377.8567 52.9159,533.0511 79.6344,-66.9376 158.6319,-134.3756 238.6293,-201.0277 8.7847,-7.9087 18.7796,-14.9789 26.8682,-23.3667 -38.9226,-41.3888 -75.2428,-84.2637 -111.4719,-127.1387 -12.5995,-14.1156 -22.3848,-29.5977 -34.4088,-44.0016 -25.3226,-31.0603 -51.1903,-62.4786 -85.9664,-87.5262 -3.0294,-40.3583 -4.6656,-80.8148 -6.8466,-121.2429 81.6636,56.4638 164.6307,111.8218 243.9911,170.3524 7.6042,5.3931 13.6607,12.0068 17.9013,19.3881 -7.1484,-63.1499 -13.6911,-126.3232 -20.4467,-189.4986 -0.8181,-5.8 -0.5754,-11.8389 -3.6349,-17.2558 -2.0291,-5.5597 -7.6346,-11.5042 -3.0902,-17.1838 18.7804,-30.5557 36.4987,-61.5206 55.0687,-92.1711 32.5018,60.8731 57.8244,124.0975 77.8793,188.2268 2.0595,9.0111 7.0268,17.855 5.5121,27.1529 -1.4843,10.2574 -2.3632,20.5631 -3.8456,30.8205 -11.4796,-15.0992 -22.9594,-30.197 -34.3198,-45.3203 -1.9684,-2.397 -3.8172,-4.7939 -5.4818,-7.2376 10.3577,72.2578 17.2044,144.7988 25.2923,217.2293 59.8232,-50.2326 121.2549,-99.2419 183.1376,-147.9161 27.5644,-20.635 56.1582,-40.4302 82.5672,-62.0238 -2.4847,-28.0405 -3.9083,-56.1287 -6.6947,-84.1463 -0.5148,-8.8909 -10.8444,-17.8551 -3.6046,-26.3629 19.5372,-29.3815 38.0442,-59.2198 56.2795,-89.1507 21.3576,38.828 35.7759,79.8609 51.2251,120.3374 m -356.3368,352.0128 c 0.9395,11.3356 2.1505,22.6713 3.4526,33.9834 19.4461,19.0052 39.1959,37.8431 59.7321,56.1287 78.3014,69.9352 159.2985,137.9214 238.7478,207.0203 -12.298,-170.8983 -26.1106,-341.7762 -38.3176,-512.7023 -89.6248,70.5091 -177.5315,142.3591 -263.6164,215.5706 m -169.1111,-155.0147 c 25.11,31.0602 51.251,61.6644 79.116,91.2172 -2.2417,-27.3935 -5.6033,-54.7621 -8.6329,-82.1072 -1.5147,2.4208 -3.1509,4.8418 -4.4226,7.3093 -18.9322,-10.9271 -42.0434,-19.5069 -66.0626,-16.4166 m -160.9648,442.0757 c -16.235,15.1221 -34.3177,29.0704 -49.5847,44.7917 3.6045,48.4591 11.4189,96.7952 16.2349,145.2343 2.3632,80.0683 -14.4487,165.051 -76.6647,230.5764 1.7882,-10.4253 0.9396,-20.9696 1.0915,-31.4674 -0.091,-35.925 1.8228,-71.8499 1.6068,-107.7991 -0.2066,-34.4416 0.5769,-32.0785 -1.1218,-103.3201 -0.7094,-29.7457 -5.3534,-53.339 -8.39,-74.2691 -21.7182,18.166 -42.4055,37.0993 -64.0637,55.3136 -42.6188,37.6744 -87.9289,73.336 -131.6083,110.2184 44.374,37.8188 72.2124,87.5954 79.39,138.8131 7.2395,54.4739 -9.9044,112.4024 -55.0968,154.7521 -39.8623,37.1235 -97.0454,60.5619 -156.4472,71.3453 -27.8666,4.8884 -57.6423,8.2453 -85.2999,0.8635 3.4527,22.8635 7.7842,45.655 13.5696,68.231 9.9349,38.0572 22.8683,76.474 48.5257,110.0039 13.7214,17.1354 32.5321,33.7442 58.3999,38.7769 27.6554,5.3209 55.7929,-5.6558 75.2428,-20.7069 17.3258,-12.2936 25.3529,-30.1252 32.6535,-47.0927 21.9596,-49.968 29.381,-103.6519 58.4302,-151.7039 20.3859,-38.1298 46.284,-75.1331 83.6632,-104.5158 19.3854,-15.9612 41.679,-29.5736 65.0332,-41.7013 16.0846,-7.6219 35.5611,-13.9732 54.491,-9.5137 18.0228,4.1946 30.1689,16.7768 38.4975,29.4533 18.9625,28.5436 23.8992,61.1855 39.2551,90.8579 11.2391,24.5167 26.1403,49.4178 52.6137,65.954 26.746,16.7055 62.005,21.8328 95.3569,20.7068 58.2184,-1.965 153.9589,-39.5061 158.8097,-50.1125 5.036,-10.9996 -8.2604,-94.3207 -13.4481,-141.4258 -25.3441,-230.1339 -49.5848,-460.3371 -74.3616,-690.485 -0.8484,-6.3272 -8.0271,-10.616 -11.5707,-15.9853 -83.2115,70.3362 -163.8753,142.5247 -245.1983,214.2089 m -379.354,330.1778 c -17.4169,15.9135 -33.8645,32.5215 -50.2513,49.1062 -31.1694,33.2652 -62.3663,66.9133 -85.4479,104.2048 -5.8159,9.4659 -11.1176,21.2819 -4.4226,31.3471 7.9056,10.3057 24.8086,11.8389 38.6797,11.8631 61.2466,-1.942 118.3741,-23.6314 168.1114,-50.7118 16.6296,-6.4954 32.2588,-20.8734 25.9891,-36.4758 -8.2397,-20.9696 -23.8385,-39.4723 -39.1055,-57.6141 -15.8417,-17.8309 -32.5322,-35.2538 -50.312,-51.9103 -0.818,0.049 -2.4239,0.1445 -3.242,0.1922 z" fill="#fff"/></svg>